<svg id="Calque_1" data-name="Calque 1" xmlns="http://www.w3.org/2000/svg" viewBox="0 0 1490.04 350.35"><defs><style>.cls-1{fill:#fdde33;}.cls-2{fill:#db6030;}.cls-3{fill:#52c5e4;}.cls-4{fill:#1274d9;}.cls-5{fill:#6dd018;}.cls-6{fill:#cb3e40;}.cls-7{fill:#fdde34;}.cls-8{fill:#4aaec8;}.cls-9{fill:#1374d9;}.cls-10{fill:#e74746;}.cls-11{fill:#4aaec9;}.cls-12{fill:#87ba31;}.cls-13{fill:#dd8384;}.cls-14{fill:#e3f5d3;}.cls-15{fill:#fefdfa;}.cls-16{fill:#fefdf5;}.cls-17{fill:#fefefd;}.cls-18{fill:#fefefc;}.cls-19{fill:#fefdfb;}.cls-20{fill:#fefefb;}.cls-21{fill:#fefdf8;}.cls-22{fill:#fefdf9;}</style></defs><title>_brand_</title><path class="cls-1" d="M749,185.64c.37,21.52-6,40.62-20.84,56.53C716,255.31,701,263.4,683.14,265.84c-20.41,2.8-39.85,0-56.94-12.17-18.44-13.07-29.55-31.08-32.94-53.52-2.84-18.75-1.06-37,8-54,12.07-22.63,30.77-36.49,56.34-40.41,19.17-2.93,37.59-.5,54.28,9.82,20.18,12.46,31.92,30.85,36.16,54.1a63.64,63.64,0,0,1,1,7.66C749.16,180.1,749,182.87,749,185.64Z" transform="translate(-6.63 -6.17)"/><path class="cls-2" d="M1304.53,199.26c0,19.52.7,41.17-.16,62.81-.57,14.38-1.47,28.68-6.39,42.43-7.74,21.64-22.47,36.7-43.73,44.75-29.89,11.31-59.18,9.58-87.25-6.34a34.44,34.44,0,0,1-7.8-6.13c-4.67-4.84-5.75-10.54-4-16.87,1.49-5.4,5.92-8.62,12.2-9.09a39.56,39.56,0,0,1,17.27,3c10.39,4,21,6.82,32.24,6.83,17.07,0,31.54-6,42.43-19.42,6.72-8.27,9.51-18,9-28.6-.4-7.92-5.46-11.46-13.22-9.64a34.69,34.69,0,0,0-8.32,3.64,79.92,79.92,0,0,1-29.19,8.72c-2.23.25-3-.16-3-2.63.15-10.32.09-20.64,0-30.95,0-1.66.3-2.17,2.15-2,22.72,2.1,45-14.76,49.19-37.24,2.73-14.62,1.56-29-5.06-42.34-8.86-17.91-23.53-27.1-43.75-26.62-2.16.05-2.57-.42-2.55-2.45q.16-13,0-26c0-2.21.49-2.74,2.76-2.53,9,.82,17.46,3.49,25.83,6.7,10,3.84,20.21,4.83,30.47.84,2.92-1.13,5.63-2.73,8.64-3.66,10.6-3.28,18.25,1,20.91,11.73,2,7.88,1.27,15.94,1.39,23.93C1304.93,160.47,1304.8,178.8,1304.53,199.26Z" transform="translate(-6.63 -6.17)"/><path class="cls-3" d="M1112.33,183.8c0,19.52.05,39,0,58.57,0,7.28-.42,14.55-2.21,21.64-1.85,7.37-6.6,11.48-13.67,12-8.72.62-14-2.31-17.09-9.63-2.41-5.63-2.48-11.67-2.78-17.62-.88-17.39-.4-34.81-.75-52.21-.25-12.78-.13-25.63-3.2-38.17-3-12.16-9.34-21.77-21.93-25.54-21.84-6.55-45.76,1.51-54.54,27.16-3.51,10.25-4.22,20.88-4.38,31.57-.29,19-.3,37.95-.65,56.92-.09,5,0,10.12-1.34,15.09-2.6,9.88-9.13,13-17.17,12.72-12.36-.37-15.74-8.17-16.67-15.33a78.63,78.63,0,0,1-.52-9.09c-.19-12.7-.37-25.41-.43-38.12,0-6.54.44-13.08.25-19.61-.66-22.37-.51-44.75-.28-67.13A52.19,52.19,0,0,1,958,108.6q4.54-11.8,16.83-9c5.09,1.15,9.68,3.48,14.22,5.94,8.58,4.64,16.65,4.77,25.52-.4,22.7-13.22,45.93-14.25,68.7,0,14,8.71,21.49,22.11,25.29,37.82a121.13,121.13,0,0,1,3.3,27.34c.05,4.52,0,9,0,13.55Z" transform="translate(-6.63 -6.17)"/><path class="cls-4" d="M452.79,156.38c0-5.53.12-11.06-.05-16.58-.07-2.32.41-3.15,3-3.12,10.34.12,20.62-.61,30.67-3.28,1.51-.4,3-.86,4.48-1.4,18.19-6.67,22.92-31.65,8.41-44.61-5.41-4.82-12-7-19-8.18a120.36,120.36,0,0,0-24.5-1.43c-2.55.09-3-.74-3-3.09.12-10.77.06-21.55,0-32.33,0-1.27-.1-2.31,1.77-2.27,13.07.24,26.17-.37,39.14,2,13.76,2.47,26.69,7,36.82,17,18.36,18.08,22.12,39.74,14.37,63.82a98.18,98.18,0,0,1-6.11,13.9,82,82,0,0,0-4.87,11.41,9.36,9.36,0,0,0,1.09,8.41,127.46,127.46,0,0,0,10.11,13.12c8.77,10.59,14.86,22.39,16.1,36.3,2.13,23.79-8.61,55.81-46.45,65.14-12.79,3.15-25.82,4-38.87,4.77-6.8.41-13.62.44-20.43.73-1.91.08-2.74-.28-2.71-2.52q.18-16.44,0-32.89c0-2.24.78-2.44,2.7-2.43,13.27.1,26.53-.12,39.65-2.43a39.41,39.41,0,0,0,4.28-1.08c14.52-4.31,22.07-14.84,21.28-29.64-.78-14.46-9.81-24.57-24.59-27a222.12,222.12,0,0,0-36.35-2.5c-2.2,0-5.13.7-6.4-.42-1.51-1.33-.44-4.33-.48-6.61C452.73,164.86,452.79,160.62,452.79,156.38Z" transform="translate(-6.63 -6.17)"/><path class="cls-4" d="M382.53,159q0-44.09,0-88.16a68.86,68.86,0,0,1,2.09-17.78,14.41,14.41,0,0,1,10.92-10.93A71.19,71.19,0,0,1,414.17,40c11.79,0,23.58.12,35.37.06,2.15,0,2.78.56,2.75,2.76q-.17,16.15,0,32.33c0,2-.47,2.66-2.59,2.64a55.69,55.69,0,0,0-15.28,2c-6.6,1.8-10.46,6-12.07,12.64-2.08,8.62-1.28,17.19-.26,25.8.26,2.19.45,4.4.84,6.57,1.19,6.66,4.74,10,11.48,10.73a119.43,119.43,0,0,0,15.69,1.19c1.72,0,2.18.53,2.17,2.21q-.09,17.55,0,35.1c0,1.7-.45,2.23-2.16,2.17-3.5-.12-7-.07-10.51,0-7.45.09-12.79,3.53-16,10.23-2.33,4.81-3.23,10-3.7,15.21-.54,6.07-.75,12.13.6,18.15a20,20,0,0,0,12.4,14.83,48,48,0,0,0,16.61,3.79c2.31.11,2.83.92,2.8,3.12-.11,10.87-.09,21.75,0,32.62,0,1.92-.47,2.43-2.45,2.41-9.3-.09-18.61.1-27.91,0a147.57,147.57,0,0,1-21.19-1.63c-11.79-1.8-16.46-6.62-17.7-18.6-1-9.83-.55-19.7-.6-29.55-.12-22.57,0-45.15,0-67.72Z" transform="translate(-6.63 -6.17)"/><path class="cls-5" d="M843.69,245.68c0-6.26.06-12.53,0-18.79,0-1.71.51-2.13,2.18-2.18,18.34-.57,32.85-12.07,36.08-29.89s-1.4-33.74-18.23-43.8a34.42,34.42,0,0,0-17.75-4.54c-1.82,0-2.29-.56-2.28-2.35q.12-18.52,0-37c0-1.93.51-2.48,2.46-2.47,47,.32,73,36.14,76.66,68.31,2.09,18.2.63,36-8.36,52.36-14.8,26.91-37.85,40.62-68.53,41.57-2,.06-2.24-.71-2.22-2.38C843.74,258.21,843.69,252,843.69,245.68Z" transform="translate(-6.63 -6.17)"/><path class="cls-5" d="M843.14,245.9c0,6-.14,12,.06,18,.09,2.5-.63,3.06-3.05,2.92-28.09-1.69-49-14.92-63.15-39.08-15.68-26.86-14.94-69.61,8.34-96.24C800.13,114.55,818.77,106,841,104.72c1.74-.1,2.18.42,2.17,2.12q-.09,18.8,0,37.59c0,1.79-.72,2.06-2.24,2.23-17.77,2-30.77,14-33.38,31.69-2.2,14.84,1.51,28,13.25,38.16a33.66,33.66,0,0,0,19.88,8.07c2.14.16,2.53.87,2.49,2.8C843.06,233.55,843.14,239.73,843.14,245.9Z" transform="translate(-6.63 -6.17)"/><path class="cls-2" d="M1214.13,118.12c0,4.6,0,9.21,0,13.81,0,1.08,0,1.84-1.48,2.08-17.87,3-29.11,14.23-35.24,30.41-6.83,18-5.89,36.11,3.64,53.07,6.58,11.74,17,19,30.31,21.52,2.32.44,2.84,1.3,2.81,3.54q-.2,15.19,0,30.39c0,2.11-.6,2.59-2.62,2.58-24.7-.06-43.59-11-57.85-30.7-14.1-19.46-19.16-41.33-17.11-65,2-23.09,11.1-43,27.65-59.27,13.18-12.93,29.49-18.26,47.76-18.17,1.72,0,2.19.55,2.15,2.22C1214.06,109.09,1214.13,113.6,1214.13,118.12Z" transform="translate(-6.63 -6.17)"/><path class="cls-6" d="M1413.17,120.72c0,4.6,0,9.21,0,13.82,0,1.29-.14,2-1.75,2-21.87-.5-40.6,17.39-45.22,38.78-3.39,15.71-2.68,31.2,6,45.16,8.84,14.29,21.61,22.94,39,23.47,1.54,0,2.06.44,2,2-.06,9.3-.09,18.61,0,27.92,0,2-.82,2.17-2.44,2.13-29-.76-51.57-13.15-67.18-37.58-18.42-28.83-18.2-69.51.56-97.45,15.7-23.4,38.07-35.07,66.09-36.33,2.58-.12,3.07.7,3,3C1413,112.05,1413.17,116.39,1413.17,120.72Z" transform="translate(-6.63 -6.17)"/><path class="cls-6" d="M1495.62,202a81.71,81.71,0,0,1-66.29,72.6,87.58,87.58,0,0,1-13.72,1.44c-1.4,0-1.93-.31-1.92-1.82q.09-14.22,0-28.45c0-1.5.59-1.85,1.93-1.91,24-1.13,44.06-20.44,46.08-48.05.81-11.09-.23-22-5.2-32.08-8.16-16.56-22.24-24.69-40.09-27-2-.26-2.78-.65-2.75-2.87.15-8.93.12-17.86,0-26.8,0-2,.54-2.44,2.47-2.4,47.49,1.06,72.81,36.46,78.33,66.44,1.3,7.05,2.44,14.15,2.08,21.38C1496.21,195.67,1496,198.84,1495.62,202Z" transform="translate(-6.63 -6.17)"/><path class="cls-5" d="M173.73,6.3c11.71-.46,21.44,3.46,28.59,13a26.93,26.93,0,0,1,5.07,12.12c.25,1.66.82,2.25,2.54,2.47a43.57,43.57,0,0,1,37.6,51.51c-.37,2,.43,2.08,1.87,2.32a30.32,30.32,0,0,1,21.19,13.63c.66,1,1.42,2,1.16,3.3a3.78,3.78,0,0,1-2.51,3,3.26,3.26,0,0,1-3.8-1.61,28.12,28.12,0,0,0-4.54-5.54,22.85,22.85,0,0,0-17-6c-4.25.21-5.76-1.83-4.45-5.82A36.46,36.46,0,0,0,208,40.77c-7.41-.66-6.56-1.54-7.34-7-1.29-9.09-6.33-15.47-14.89-18.63S169,13.54,162,19.5a21.61,21.61,0,0,0-7.63,15.15c-.12,1.38-.15,2.76-.15,4.14q0,119.28,0,238.57c0,7,1.6,13.41,6.78,18.36,7,6.68,15.35,8.7,24.5,5.45,9.54-3.39,14.46-10.62,15.53-20.59.44-4.05,1.25-4.81,5.32-5A36.86,36.86,0,0,0,241.51,240c.15-3.49,1.15-4.77,4.59-4.81,13.42-.15,26.19-13.82,21.06-30.35a4.67,4.67,0,0,1,1.59-5.39c19.54-17.44,17.07-45.72-5.17-59.53-3.14-1.94-3.6-3.9-1.33-6.49a23.34,23.34,0,0,0,6.05-14.76c.16-3.61,2.15-5.17,4.81-4.13a3.45,3.45,0,0,1,2.24,3.71,28.77,28.77,0,0,1-4.63,15.41c-.9,1.38-.9,2,.47,3,21.74,16.8,23.72,46.2,4.47,65.87a3,3,0,0,0-1.07,3.09c3.4,16.81-6.78,32.4-23.49,35.86-2.21.46-2.88,1.25-3.17,3.49-2.44,18.92-17.87,34.4-36.9,37-2.34.33-3.34,1-3.83,3.51a30,30,0,0,1-24,23.5,30.41,30.41,0,0,1-31.05-13.56,8.83,8.83,0,0,1-1.43-4.91q.06-132.55,0-265.11a8.6,8.6,0,0,1,1.46-4.91A31.53,31.53,0,0,1,170.3,7.4C171.25,6.44,172.68,7,173.73,6.3Z" transform="translate(-6.63 -6.17)"/><path class="cls-7" d="M143.3,158.11q0,66.21,0,132.41a9.41,9.41,0,0,1-1.6,5.44A30.38,30.38,0,0,1,110.5,309C98.63,306.62,88.93,297,86.94,285.09c-.41-2.46-1.64-2.61-3.41-2.91C65.79,279.09,54,269,48,252c-1.45-4.11-1.78-8.43-2.14-12.75-.21-2.5,1-3.66,3.12-4.07,2-.37,3.91,1.44,4,3.63a37.84,37.84,0,0,0,3.28,15c6.35,13.27,16.84,20.58,31.56,21.6,4.3.3,5.25,1.07,5.63,5.35,1,11.8,10.15,21.1,21.3,21.7,12.22.66,22.32-6.92,24.78-18.75a28.42,28.42,0,0,0,.34-5.77c0-79.89-.09-159.78.12-239.67,0-13.34-10-24.51-22.75-24.47-2.54,0-4.31-1.64-4.2-3.46a4.25,4.25,0,0,1,4.55-4c10.85,1.2,19.54,6,25.19,15.63a6.92,6.92,0,0,1,.55,3.77Z" transform="translate(-6.63 -6.17)"/><path class="cls-7" d="M46.76,94.59c-7.23.33-14.54,4.55-18.47,13.35s-2.79,17.25,3.37,24.8c2.82,3.46,2.63,5.18-1.15,7.48-21.76,13.27-24.14,42.43-4.82,59.17a4.7,4.7,0,0,1,1.67,5.37c-3.14,11.17.16,20.29,9.64,27,3.33,2.34,3.5,4.52.56,6.44-1.38.91-2.62.53-3.85-.24A29.8,29.8,0,0,1,19.3,215.8a25.09,25.09,0,0,1,.49-10.13,2.69,2.69,0,0,0-1-2.92C13.14,197.36,9.51,190.7,7,183.37a10.81,10.81,0,0,1-.37-3.27c0-5.43,0-10.87,0-16.3,0-5.62,2.71-10.24,5.33-14.86a37.88,37.88,0,0,1,11.11-12.15c1.33-.94,1.55-1.52.66-3-11.34-19-1.09-41.7,20.71-45.87,2.32-.44,2.57-1.19,2.16-3.42-4.4-24,13.28-47.81,37.57-50.57,1.83-.21,2.37-.81,2.72-2.59a29.71,29.71,0,0,1,13.52-20c2.66-1.72,4.58-1.45,5.9.87s-.17,3.8-2,5c-7,4.56-10.57,11.09-11,19.36-.13,2.64-1.51,3.78-3.92,4.1-3,.4-6,.44-9,1.24A36.67,36.67,0,0,0,53,75.4a34.19,34.19,0,0,0,1.55,12C56.35,93.21,55.31,94.62,46.76,94.59Z" transform="translate(-6.63 -6.17)"/><path class="cls-2" d="M160.77,130.93c-1-10.75,3.89-19.17,11.5-26.43,3.66-3.5,7.19-7.14,10.76-10.74,2.37-2.39,4.67-4.71,6.14-8,2.39-5.27,9.08-6.88,13.91-3.9a10.2,10.2,0,0,1,3.12,14.85c-3.57,4.87-10,5.87-14.53,2-1.61-1.39-2.35-1.23-3.72.2-4.14,4.32-8.41,8.52-12.68,12.71-5.05,5-7.24,10.86-7.57,18-.45,9.52,2.66,17,9.71,23.24,3.66,3.22,7,6.82,10.38,10.33,1.3,1.35,2.1,2,3.92.36a9.34,9.34,0,0,1,11.75-.62,10.22,10.22,0,0,1,4.41,11,10.52,10.52,0,0,1-9.54,7.93,10.14,10.14,0,0,1-9.75-6.41,12.34,12.34,0,0,0-3.06-4.48q-7.92-7.89-15.77-15.87A29.88,29.88,0,0,1,160.77,130.93Z" transform="translate(-6.63 -6.17)"/><path class="cls-8" d="M106.65,146.27C106,160,96.15,171.31,82,174.42c-2,.44-2.6,1.19-3,3.09a31,31,0,0,1-29,24.78,4.29,4.29,0,0,1-4.5-3.62c-.16-2,1.77-3.74,4.46-3.88,9.64-.51,16.45-5.22,20.59-13.87.08-.17.16-.34.23-.51,2-4.94,2-5.08-3.14-6.59A30.55,30.55,0,0,1,48.3,132a17,17,0,0,1,1.17-2.18c1.46-2.34,3.13-2.93,5-1.83,2.1,1.22,2.57,2.94,1.37,5.37-3.94,8-4.12,16,.69,23.67a23.25,23.25,0,0,0,42.88-11.19c.23-4,2.83-5.93,5.56-4.24C106.78,142.74,106.8,144.47,106.65,146.27Z" transform="translate(-6.63 -6.17)"/><path class="cls-9" d="M167.83,208.25c0,2.12,0,4.24,0,6.35A21.07,21.07,0,0,0,174,230.08c4.71,4.91,9.62,9.64,14.38,14.51,1.06,1.08,1.69,1.15,2.91.12,3.91-3.3,8.1-3.6,12-1.12a10.26,10.26,0,0,1,4.65,11.17,10.51,10.51,0,0,1-9.51,7.94c-4.39.22-8.31-2.52-10.06-7.15a8,8,0,0,0-2-2.93Q178,244.33,169.79,236c-6-6.11-9.29-13.35-9.11-22.06.1-5,.08-9.94,0-14.91,0-2.37,1.06-3.82,3.27-4s3.65,1.35,3.77,3.56c.16,3.21,0,6.44,0,9.66Z" transform="translate(-6.63 -6.17)"/><path class="cls-2" d="M248.6,110c.46,7.19-5.72,12.64-12.65,10.9a3.41,3.41,0,0,0-3.79,1.21c-6.68,6.73-13.46,13.35-20.09,20.12-4,4.12-8.72,6.31-14.54,6-2.11-.11-4.23,0-6.35,0a3.59,3.59,0,0,1-.07-7.17c2.48-.13,5-.1,7.45,0a10.14,10.14,0,0,0,7.71-3.1c7.18-7.14,14.3-14.33,21.53-21.41,1.1-1.08.83-2,.54-3.18A9.48,9.48,0,0,1,231.89,103c3.26-2.55,6.91-3.35,10.79-1.2C245.59,103.86,247,107,248.6,110Z" transform="translate(-6.63 -6.17)"/><path class="cls-10" d="M77.28,73.62a30.57,30.57,0,0,1,29,26.9c.22,1.79.71,1.87,2.22,1.37a24.44,24.44,0,0,1,7.59-1.25c2.34,0,4.13,1.56,4.16,3.53s-1.63,3.5-4,3.68c-13.55,1.05-22,9.47-22.94,23-.17,2.39-1.68,4-3.68,4s-3.65-1.77-3.54-4.39c.38-9.12,3.93-16.81,11.07-22.53a5.4,5.4,0,0,0,2.29-5.69c-1-7.71-4.49-13.71-11.1-17.85a20.25,20.25,0,0,0-9.88-3.11c-.64,0-1.29-.08-1.92-.18-2.87-.45-4.28-2-4-4.28C72.83,74.66,74.56,73.51,77.28,73.62Z" transform="translate(-6.63 -6.17)"/><path class="cls-9" d="M239.35,208.73c-4.62.11-7.57-1.52-9.47-4.6-1.06-1.71-2.25-2-4-2-10.86.06-21.73,0-32.6,0a15.17,15.17,0,0,1-3-.25,3.49,3.49,0,0,1-.25-6.72,12.32,12.32,0,0,1,3.27-.33c10.77,0,21.55-.07,32.32,0a4.75,4.75,0,0,0,4.64-2.45A9.92,9.92,0,0,1,242.47,189a10.51,10.51,0,0,1,6.19,11.24C247.68,205.2,243.45,208.71,239.35,208.73Z" transform="translate(-6.63 -6.17)"/><path class="cls-8" d="M120.2,207.39c-.17,11.72-5,20.93-15,27.2-1.88,1.18-3.76,1-5.09-.94s-.66-3.78,1.19-5a25,25,0,0,0,8.49-8.52c6.2-11,3.06-24.12-7.49-31.41-1.58-1.09-3.09-2.19-2.54-4.42.68-2.71,3.26-3.61,5.9-1.93A30.37,30.37,0,0,1,120,205.19C120.11,205.92,120.14,206.65,120.2,207.39Z" transform="translate(-6.63 -6.17)"/><path class="cls-2" d="M169.11,60.32c1.11,0,2.22-.08,3.31,0a3.08,3.08,0,0,0,3.3-1.78A10.08,10.08,0,0,1,187.39,54a10.67,10.67,0,0,1,7.49,9.6,10.7,10.7,0,0,1-7.26,10.06,9.81,9.81,0,0,1-11.57-4.07,4.4,4.4,0,0,0-4.68-2.35c-2.3.14-4.6,0-6.9.07s-3.59-.92-3.75-3.14,1.2-3.62,3.43-3.84c1.64-.16,3.31,0,5,0Z" transform="translate(-6.63 -6.17)"/><path class="cls-11" d="M106.71,265a3.8,3.8,0,0,1-1.91,4c-2.56,1.38-5.15-.38-5.32-3.76a23.27,23.27,0,0,0-5.66-14.61A21.43,21.43,0,0,0,78,242.82a12.35,12.35,0,0,1-2.19-.25c-2.13-.49-3.52-1.7-3.2-4.06s2-3.32,4.13-3.23c9,.4,16.58,3.78,22.51,10.6C103.8,251.12,106.23,257.26,106.71,265Z" transform="translate(-6.63 -6.17)"/><path class="cls-10" d="M114.05,67.41c-9.77-.88-18.07-5.94-23.86-15.1a3.27,3.27,0,0,1,1-4.84c1.78-1.28,3.51-1.09,4.83.68,2,2.74,3.94,5.53,6.8,7.52a24,24,0,0,0,12.54,4.52c3.16.18,5,1.46,5,3.62C120.27,66.12,118.3,67.5,114.05,67.41Z" transform="translate(-6.63 -6.17)"/><path class="cls-12" d="M248.6,110l-5.92-8.21C246.38,103.29,248.12,106.2,248.6,110Z" transform="translate(-6.63 -6.17)"/><path class="cls-13" d="M1495.62,202a24.57,24.57,0,0,1,.94-9.49A23.64,23.64,0,0,1,1495.62,202Z" transform="translate(-6.63 -6.17)"/><path class="cls-14" d="M173.73,6.3c-.87,1.21-2.2,1-3.43,1.1C171,5.72,172.44,6.22,173.73,6.3Z" transform="translate(-6.63 -6.17)"/><path class="cls-15" d="M671.19,184.4V136.32c0-6.88,6.06-11.56,12.88-9.91a11.07,11.07,0,0,1,8.59,8.11,2.87,2.87,0,0,0,2.51,2.36c9.19,2.19,14.19,9.2,13.27,18.73-.15,1.57.66,1.65,1.64,1.9a11.59,11.59,0,0,1,6.73,4.52c.59.83,1.38,1.73.19,2.6-1,.77-1.7-.09-2.25-.84a8.63,8.63,0,0,0-7.53-3.85c-1.83,0-2.54-.71-1.87-2.59,2.94-8.16-3.71-17.83-12.3-18-1.59,0-2.39-.66-2.63-2.46-.65-5-4.25-8-9-8s-8.1,3.1-8.76,8.17a21.1,21.1,0,0,0-.23,2.74q0,44.64,0,89.26c0,5.44,1.95,8.73,5.92,10.24a8.84,8.84,0,0,0,12-7.09c.31-1.94,1-2.54,2.88-2.79,7.13-.91,11.87-5.71,12.69-12.84.22-1.83.85-2.42,2.65-2.7,5.59-.85,8.69-5.59,7.36-11.1a2.67,2.67,0,0,1,.94-2.87c6.86-6.94,6.09-16.44-1.83-22.14-1.45-1-2.17-1.8-.7-3.42a8.31,8.31,0,0,0,2-5.05c.07-.9.26-1.79,1.35-1.68s1.32,1.06,1.2,2.08c-.14,1.28-.1,2.69-.89,3.71-1.39,1.82-.46,2.78.86,4a16.2,16.2,0,0,1,1,23.06,4.12,4.12,0,0,0-1.09,3.46,11.21,11.21,0,0,1-8.18,12.21,2.84,2.84,0,0,0-2.39,2.49c-1.48,7-5.82,11.33-12.7,13.08a3.42,3.42,0,0,0-3,2.63,11.49,11.49,0,0,1-17.23,6.35c-2.71-1.7-4.29-3.89-4.25-7.44C671.28,217,671.19,200.7,671.19,184.4Z" transform="translate(-6.63 -6.17)"/><path class="cls-16" d="M668.25,184.46q0,22,0,43.95c0,2.4,0,4.79-.14,7.18-.13,2.85-4.33,6.28-8.2,6.78-6.35.82-11.22-2.19-13.13-8.34-.49-1.57-1.5-1.85-2.77-2.18a16.81,16.81,0,0,1-12.83-12.73,9.35,9.35,0,0,1-.34-2.17c0-1.12-.53-2.72,1.26-2.81,1.55-.08,1.39,1.4,1.5,2.47a13.82,13.82,0,0,0,6.5,10.7,13.43,13.43,0,0,0,6.49,2.12c1.72.11,2.3.87,2.55,2.54.72,5,4.86,8.37,9.35,7.92,5-.49,8.32-4.11,8.32-9.3q0-46.15,0-92.33c0-5.18-2.94-8.53-8-9.28-1-.15-2.27-.2-2.17-1.54.12-1.56,1.51-1.34,2.59-1.24,5.21.46,8.76,4.15,8.78,9.34,0,16.31,0,32.61,0,48.92Z" transform="translate(-6.63 -6.17)"/><path class="cls-17" d="M620.35,204.84c1.12-2.18-.48-3.74-1.84-5.53-4.94-6.5-3.92-16.29,2.33-22.06,1.26-1.17,1.62-1.9.78-3.6a11.25,11.25,0,0,1,7.13-15.88c1.87-.55,2.29-1.16,2.14-3.13a16.59,16.59,0,0,1,13.05-17.7c1.63-.37,2.53-.92,2.93-2.63a10.56,10.56,0,0,1,4.25-6c.82-.63,1.75-1.3,2.65-.23s-.09,1.67-.81,2.22a9.22,9.22,0,0,0-4,7c-.08,1.53-1.09,1.92-2.42,2.09-9.53,1.2-14.74,8.65-12.42,17.87.52,2.07-.15,2.7-2.1,2.7a8.87,8.87,0,0,0-7,14.31c1.22,1.58.94,2.42-.61,3.54-7.92,5.69-8.77,14.92-2.06,21.89a3.26,3.26,0,0,1,1.1,3.41c-1,3.69.32,6.64,3.19,9,.73.61,2.39,1.07,1.36,2.45s-2.14.34-3.1-.39C622,212,620.64,208.83,620.35,204.84Z" transform="translate(-6.63 -6.17)"/><path class="cls-17" d="M677.85,174.14a8.54,8.54,0,0,0,3,7.47c1.27,1.2,2.53,2.43,3.7,3.72,1,1.12,1.82,1.62,3.44.65,2-1.19,3.78,0,4.85,1.78,1.17,2,.42,3.79-1.35,5s-3.78,1-4.91-.7c-2.41-3.67-5.8-6.38-8.64-9.61-4-4.55-3.92-12.5.09-17.05,2.78-3.17,6.13-5.79,8.45-9.42,1.21-1.88,3.31-2,5.13-.69s2.37,3.1,1.15,5.08-2.93,2.81-4.92,1.62c-1.48-.89-2.24-.53-3.21.57a48.41,48.41,0,0,1-3.49,3.53C678.74,168.33,677.39,170.91,677.85,174.14Z" transform="translate(-6.63 -6.17)"/><path class="cls-18" d="M642.32,188.12a8.91,8.91,0,0,0,8.93-7.81c.17-1.13.21-2.53,1.64-2.38,1.72.18,1.29,1.8,1.1,2.9a11.36,11.36,0,0,1-8.2,9.48,3.52,3.52,0,0,0-2.68,2.66c-1.33,4.58-4.6,7.19-9.19,8.19-1.14.24-2.64.64-3-.92-.48-1.89,1.24-1.65,2.33-1.82A9,9,0,0,0,640,193.7c1-1.75,1-2.73-1.33-3.53-6.73-2.26-10-10-6.9-15.93.47-.9,1-2,2.27-1.31,1.1.55.85,1.47.43,2.37a11.89,11.89,0,0,0-.53,1.28A8.9,8.9,0,0,0,642.32,188.12Z" transform="translate(-6.63 -6.17)"/><path class="cls-18" d="M677.79,204.68c-1.21,5.93,4.17,8.81,7.7,12.74.72.8,1.26.07,1.91-.23a3.91,3.91,0,0,1,5.42,1.57,3.84,3.84,0,0,1-1.58,5.23A3.61,3.61,0,0,1,686,222.5a30,30,0,0,0-6.32-6.87c-4.82-4.28-4.92-9.78-4.62-15.48,0-.83.44-1.47,1.32-1.47a1.33,1.33,0,0,1,1.39,1.41C677.83,201.38,677.79,202.67,677.79,204.68Z" transform="translate(-6.63 -6.17)"/><path class="cls-18" d="M689.08,180.51c-.93,0-1.48,0-2,0-.78-.05-1.51-.27-1.55-1.22a1.27,1.27,0,0,1,1.31-1.47c7.09.75,9.17-5.89,13.56-9.11.79-.58.58-1.42.58-2.26a4,4,0,0,1,3.86-4.18,4.15,4.15,0,0,1,4,4.15,3.81,3.81,0,0,1-4.26,3.71,2.91,2.91,0,0,0-2.82,1.14c-2.21,2.23-4.47,4.39-6.62,6.68C693.33,179.81,691.31,180.84,689.08,180.51Z" transform="translate(-6.63 -6.17)"/><path class="cls-19" d="M646.28,172.64a9.71,9.71,0,0,1,3.31-6.76c2.17-1.83,2-3.71.95-5.87a8.51,8.51,0,0,0-7-5.12c-1.13-.12-2.54-.16-2.42-1.61.14-1.67,1.58-1.4,2.81-1.2a11.17,11.17,0,0,1,9.7,8.58c.47,1.67,1,2.37,2.81,1.75,1.08-.37,2.44-.42,2.72,1,.33,1.64-1.21,1.51-2.23,1.71-4.61.9-7.35,3.57-7.9,8.31-.12,1-.28,1.89-1.51,1.89C646.57,175.31,646.2,174.53,646.28,172.64Z" transform="translate(-6.63 -6.17)"/><path class="cls-20" d="M693.61,198.53c1.57,0,3.13-.05,4.7,0a4.52,4.52,0,0,0,3.92-1.41,3.46,3.46,0,0,1,5.37,0,3.84,3.84,0,0,1,.12,5.47,3.89,3.89,0,0,1-5.66,0,4.13,4.13,0,0,0-3.43-1.26c-3.59,0-7.18,0-10.78,0-1.12,0-2.47,0-2.41-1.53.06-1.35,1.35-1.26,2.37-1.27Z" transform="translate(-6.63 -6.17)"/><path class="cls-21" d="M659.31,203.67a11.57,11.57,0,0,1-5.21,9.72c-.83.55-1.66,1-2.43.05s0-1.73.76-2.23a9,9,0,0,0,.11-15c-.73-.49-1.65-1.13-.81-2.23s1.8-.46,2.63.15A11.8,11.8,0,0,1,659.31,203.67Z" transform="translate(-6.63 -6.17)"/><path class="cls-19" d="M688.21,148.21a4.11,4.11,0,0,1-2.51,3.57,3.09,3.09,0,0,1-4-.71c-1.2-1.56-2.62-1.74-4.32-1.63-1,.06-2.26,0-2.24-1.35s1.21-1.46,2.27-1.38a4.62,4.62,0,0,0,4.38-1.55c1-1.25,2.7-1.13,4.09-.51A4,4,0,0,1,688.21,148.21Z" transform="translate(-6.63 -6.17)"/><path class="cls-22" d="M654.08,224.93c.06.95,0,2-1.14,2.14s-1.46-.8-1.66-1.78c-1.16-5.61-2.87-7.34-8.28-8.36-1-.19-2-.45-1.87-1.58.11-1.35,1.26-1.34,2.32-1.29C648.82,214.32,654,219.62,654.08,224.93Z" transform="translate(-6.63 -6.17)"/><path class="cls-16" d="M656.79,149.49c-3.78-.35-6.58-2.4-8.81-5.39-.56-.76-.73-1.51.14-2.16a1.28,1.28,0,0,1,1.93.35,10,10,0,0,0,7.82,4.47,1.3,1.3,0,0,1,1.33,1.46C659,149.62,657.87,149.47,656.79,149.49Z" transform="translate(-6.63 -6.17)"/></svg>