<svg id="Calque_1" data-name="Calque 1" xmlns="http://www.w3.org/2000/svg" viewBox="0 0 195.76 210.64"><defs><style>.cls-1{fill:#6dd018;}.cls-2{fill:#fdde34;}.cls-3{fill:#fdde33;}.cls-4{fill:#db6030;}.cls-5{fill:#4aaec8;}.cls-6{fill:#1374d9;}.cls-7{fill:#e74746;}.cls-8{fill:#4aaec9;}.cls-9{fill:#dff4cd;}.cls-10{fill:#fef3b8;}.cls-11{fill:#82bd2d;}</style></defs><title>_logo_</title><path class="cls-1" d="M117.78,214.51a21.64,21.64,0,0,1-13.7-9.41,5.9,5.9,0,0,1-1-3.4q0-91.9,0-183.8a6,6,0,0,1,1-3.41,21,21,0,0,1,22.1-9.26A20.8,20.8,0,0,1,142.35,22c.21,1.14.57,1.56,1.77,1.71A30.21,30.21,0,0,1,170.18,59.4c-.25,1.36.3,1.44,1.3,1.6a21,21,0,0,1,14.69,9.46,3,3,0,0,1,.81,2.28,2.63,2.63,0,0,1-1.74,2.12,2.26,2.26,0,0,1-2.63-1.12,19.48,19.48,0,0,0-3.16-3.84,15.78,15.78,0,0,0-11.75-4.2c-2.95.15-4-1.27-3.09-4A25.27,25.27,0,0,0,142.8,28.45c-5.15-.47-4.57-1.07-5.09-4.87A15.88,15.88,0,0,0,126.12,10.2a16.38,16.38,0,0,0-17.32,5.72,15.1,15.1,0,0,0-3.2,8.28c-.07,1-.1,1.92-.1,2.87q0,82.71,0,165.4c0,4.88,1.11,9.3,4.7,12.73,4.86,4.64,10.64,6,17,3.79,6.62-2.35,10-7.37,10.78-14.28.3-2.81.86-3.33,3.68-3.48A25.55,25.55,0,0,0,166,166.59c.11-2.42.8-3.31,3.19-3.34a16,16,0,0,0,14.6-21,3.22,3.22,0,0,1,1.09-3.73c13.56-12.1,11.84-31.7-3.58-41.27-2.17-1.35-2.49-2.71-.92-4.5a16.21,16.21,0,0,0,4.2-10.24c.11-2.5,1.48-3.58,3.33-2.86a2.38,2.38,0,0,1,1.55,2.57,19.9,19.9,0,0,1-3.21,10.68c-.61,1-.62,1.38.33,2.12,15.07,11.64,16.45,32,3.1,45.66a2.06,2.06,0,0,0-.74,2.14,20.74,20.74,0,0,1-16.29,24.87c-1.53.32-2,.86-2.2,2.42a30.23,30.23,0,0,1-25.58,25.69c-1.62.23-2.27.7-2.66,2.42-2,8.85-7.73,14.12-16.42,16.33A16.13,16.13,0,0,1,117.78,214.51Z" transform="translate(-3.11 -4.8)"/><path class="cls-2" d="M75.61,214.54c-9.28-2.25-15.12-7.87-16.87-17.4-.25-1.35-1.23-1.14-2-1.25a29.63,29.63,0,0,1-13.56-5.4c-8.43-6.15-12.51-14.58-12.86-24.91,0-1.51,1-2.17,2.3-2.33a2.56,2.56,0,0,1,2.67,2.63A25.87,25.87,0,0,0,39,179c4.8,7.6,11.7,11.72,20.72,12.18,2.6.14,3.41.9,3.59,3.41.57,8.25,6.85,14.81,14.69,15.32A16.13,16.13,0,0,0,95.26,197a16.79,16.79,0,0,0,.26-3.62q0-83.53,0-167.08c0-9.36-6.27-16-15.54-16.51-1.92-.12-3.16-1.12-3.06-2.46.13-1.68,1.14-2.49,3.21-2.43C87.72,5.12,93.31,8.74,97.35,15a5.38,5.38,0,0,1,.57,3.14V166.28c0,11.75,0,23.5,0,35.25a6.7,6.7,0,0,1-1.18,3.94,21.19,21.19,0,0,1-13.88,9.09A14.59,14.59,0,0,1,75.61,214.54Z" transform="translate(-3.11 -4.8)"/><path class="cls-3" d="M31,65.76c-5,.24-10,3.12-12.75,9.12s-2,12,2.19,17.22c2.08,2.6,2,3.67-.91,5.42a25.14,25.14,0,0,0-3.25,40.81,3.31,3.31,0,0,1,1.25,3.85c-2.19,7.67.13,14,6.74,18.68,2.28,1.61,2.38,3.15.31,4.46a2.29,2.29,0,0,1-2.67-.21,20.65,20.65,0,0,1-10-15.36,17.5,17.5,0,0,1,.36-7,1.88,1.88,0,0,0-.71-2,32.32,32.32,0,0,1-8.17-13.45,7.19,7.19,0,0,1-.24-2.08c0-2.74.13-5.5,0-8.23-.5-8.38,3.56-14.64,9.22-20.17,1-.93,2.55-1.51,3-2.59s-1-2.27-1.59-3.46A21,21,0,0,1,29.05,61.18c1.76-.31,2.1-.81,1.81-2.66a30.23,30.23,0,0,1,26.3-34.85c1.14-.14,1.42-.59,1.62-1.64A20.66,20.66,0,0,1,68.23,8c.91-.59,1.85-1.17,3-.42,1.91,1.24,1.88,3-.22,4.39A16,16,0,0,0,64,21.4,22.49,22.49,0,0,0,63.32,25c-.25,2.64-.65,3.23-3.34,3.41A28.56,28.56,0,0,0,49.3,31.05,25.32,25.32,0,0,0,36.35,60.62C37.65,64.89,37,65.77,31,65.76Z" transform="translate(-3.11 -4.8)"/><path class="cls-4" d="M115,91.17c-.64,5.78,1.65,10.32,5.75,14.18,2.88,2.71,5.64,5.55,8.4,8.39.72.74,1.15.81,2,.08,2.7-2.28,5.6-2.49,8.3-.78a7.11,7.11,0,0,1-3,13.19,6.91,6.91,0,0,1-7.15-4.36,8.61,8.61,0,0,0-2.12-3.11c-3.7-3.7-7.41-7.39-11.06-11.15-4.09-4.21-6-9.23-6.24-15.16-.41-8.17,2.46-14.65,8.36-20.1,3.14-2.89,6.06-6,9.11-9a7.75,7.75,0,0,0,1.89-2.81,7.14,7.14,0,0,1,6.85-4.61,7.47,7.47,0,0,1,6.64,5.73,7.16,7.16,0,0,1-3.29,7.56,6.55,6.55,0,0,1-8.14-.68c-1-.86-1.45-.76-2.29.11-2.61,2.71-5.24,5.42-8,8C116.77,80.58,114.31,85.23,115,91.17Z" transform="translate(-3.11 -4.8)"/><path class="cls-5" d="M72.51,101.56a21,21,0,0,1-16.14,19.32c-1.88.43-2.78,1-3.23,3.08-2.06,9.34-10.13,15.89-19.9,16.47a3,3,0,0,1-3.14-2.49c-.13-1.42,1.21-2.62,3.06-2.71a15.66,15.66,0,0,0,14.28-9.6c1.71-3.65,1.58-3.87-2.16-5C33.86,117.25,26.44,104,32,91.74a13.65,13.65,0,0,1,.81-1.51c1-1.63,2.17-2,3.48-1.3,1.46.83,1.8,2,1,3.71-2.76,5.62-2.87,11.19.55,16.57a16.12,16.12,0,0,0,29.64-7.87c.07-1.25.17-2.43,1.47-3.08C71,97.25,72.65,98.78,72.51,101.56Z" transform="translate(-3.11 -4.8)"/><path class="cls-6" d="M114.93,144.43c0,1.53,0,3.06,0,4.6a14.47,14.47,0,0,0,4.17,10.57c3.3,3.46,6.76,6.77,10.1,10.2.78.81,1.22.66,2,0,2.69-2.25,5.64-2.45,8.3-.7a7.09,7.09,0,0,1,3.21,7.58,7.29,7.29,0,0,1-6.69,5.64,7.12,7.12,0,0,1-6.86-4.84,6,6,0,0,0-1.45-2.2c-3.84-3.83-7.68-7.67-11.47-11.54A20.51,20.51,0,0,1,110,148.43c.07-3.38,0-6.77,0-10.15,0-1.78.88-2.87,2.3-2.93a2.64,2.64,0,0,1,2.59,2.76c.1,2.11,0,4.22,0,6.32Z" transform="translate(-3.11 -4.8)"/><path class="cls-4" d="M170.69,75.89c1.25,4.69-3.36,9.31-8.31,8.16a2.72,2.72,0,0,0-3,.9c-4.62,4.68-9.32,9.28-13.94,14a12.35,12.35,0,0,1-9.74,4c-1.53-.06-3.07,0-4.6,0a2.49,2.49,0,0,1-.09-5c1.72-.09,3.45-.06,5.17,0a7.07,7.07,0,0,0,5.35-2.15c5-5,9.92-9.93,14.94-14.85.76-.75.57-1.36.37-2.2a6.59,6.59,0,0,1,2.46-7.16c2.27-1.77,4.8-2.32,7.49-.82C168.65,72.07,169.62,74,170.69,75.89Z" transform="translate(-3.11 -4.8)"/><path class="cls-7" d="M52.81,51.27A21.17,21.17,0,0,1,72.27,70c.15,1.11.44,1.2,1.43.88A18.29,18.29,0,0,1,79.15,70a2.53,2.53,0,0,1,2.77,2.35c.21,1.34-1,2.51-2.66,2.65-9.67.85-15.22,6.4-16,16a2.66,2.66,0,0,1-2.63,2.7,2.59,2.59,0,0,1-2.37-2.94A20.45,20.45,0,0,1,66,74.91a3.5,3.5,0,0,0,1.57-3.57C66.76,63.92,62.18,58.45,55,56.76c-1.05-.24-2.15-.21-3.22-.36-2.05-.29-3-1.27-2.87-2.88s1.37-2.39,3.37-2.29Z" transform="translate(-3.11 -4.8)"/><path class="cls-6" d="M143.92,135.25c3.83,0,7.66,0,11.49,0a2.45,2.45,0,0,0,2.47-1.28,7,7,0,0,1,7.79-3.12,7.33,7.33,0,0,1,5.37,6.51,7.19,7.19,0,0,1-4.77,7.13,6.94,6.94,0,0,1-8.37-2.86,2.66,2.66,0,0,0-2.63-1.36c-7.4.06-14.81,0-22.22,0h-1.14c-2.16-.06-3.38-1-3.34-2.6s1.28-2.46,3.29-2.47C135.88,135.23,139.9,135.25,143.92,135.25Z" transform="translate(-3.11 -4.8)"/><path class="cls-5" d="M82,144.74c-.51,7.84-3.71,13.65-9.9,17.74-1.73,1.15-3.16,1-4-.23s-.55-2.65,1.34-3.94C79.41,151.44,79.43,138,69.4,131c-1.93-1.35-2.28-2.69-1.06-4.09s2.33-1,3.59-.2a21.17,21.17,0,0,1,9.86,15.87C81.89,143.43,81.93,144.33,82,144.74Z" transform="translate(-3.11 -4.8)"/><path class="cls-4" d="M115.35,46.81c-.89,0-1.79,0-2.68,0-1.6,0-2.62-.64-2.67-2.29A2.31,2.31,0,0,1,112.49,42c1.91-.08,3.83,0,5.74,0a2.06,2.06,0,0,0,2.12-1.19,7,7,0,0,1,8.43-3.13,7.18,7.18,0,0,1,4.84,7.24,7.28,7.28,0,0,1-6.39,6.62,6.25,6.25,0,0,1-6.31-2.8,3.82,3.82,0,0,0-4.23-2,12,12,0,0,1-1.34,0Z" transform="translate(-3.11 -4.8)"/><path class="cls-8" d="M72.53,183.67c.06,2.09-.72,3.2-2.34,3.28s-2.52-.94-2.67-3c-.59-7.86-5.11-13.35-12.55-15.12-1.16-.28-2.4-.2-3.59-.41-1.53-.26-2.68-1-2.47-2.8s1.42-2.34,3-2.31A21.26,21.26,0,0,1,72.53,183.67Z" transform="translate(-3.11 -4.8)"/><path class="cls-7" d="M77.61,46.91c-6.81-.63-12.56-4.17-16.55-10.53a2.26,2.26,0,0,1,.75-3.33,2.19,2.19,0,0,1,3.34.57,20.56,20.56,0,0,0,4.73,5.2,16.61,16.61,0,0,0,8.71,3.09C80.74,42,82,43,82,44.49S80.55,47,77.61,46.91Z" transform="translate(-3.11 -4.8)"/><path class="cls-9" d="M117.78,214.51a56.49,56.49,0,0,0,8,0C124.74,215.75,118.84,215.75,117.78,214.51Z" transform="translate(-3.11 -4.8)"/><path class="cls-10" d="M75.61,214.54l7.28,0c-.06.42-.25.73-.71.73-2,0-3.92,0-5.88,0C75.84,215.28,75.66,215,75.61,214.54Z" transform="translate(-3.11 -4.8)"/><path class="cls-11" d="M170.69,75.89c-1.69-1.41-2.42-3.53-3.86-5.12A5.76,5.76,0,0,1,170.69,75.89Z" transform="translate(-3.11 -4.8)"/></svg>