<svg id="Calque_1" data-name="Calque 1" xmlns="http://www.w3.org/2000/svg" viewBox="0 0 1080.56 285"><defs><style>.cls-1{fill:#db6030;}.cls-2{fill:#52c5e4;}.cls-3{fill:#1274d9;}.cls-4{fill:#fdde34;}.cls-5{fill:#6dd018;}.cls-6{fill:#6ecf18;}.cls-7{fill:#cb3e40;}.cls-8{fill:#ddf3c9;}.cls-9{fill:#fefcef;}.cls-10{fill:#f0fae8;}.cls-11{fill:#e3f5d3;}.cls-12{fill:#fefefb;}.cls-13{fill:#fef6cc;}.cls-14{fill:#fef6cf;}.cls-15{fill:#fef5c6;}.cls-16{fill:#daf3c5;}.cls-17{fill:#d4f0bb;}.cls-18{fill:#fce15a;}.cls-19{fill:#fef9e2;}.cls-20{fill:#fefae3;}.cls-21{fill:#fef5c3;}.cls-22{fill:#fef5c2;}.cls-23{fill:#fef3c5;}.cls-24{fill:#fef4be;}.cls-25{fill:#fef6cb;}.cls-26{fill:#fef8dc;}.cls-27{fill:#fef4bb;}.cls-28{fill:#fef6ce;}.cls-29{fill:#fef5c7;}.cls-30{fill:#fef7cf;}.cls-31{fill:#fef3bb;}.cls-32{fill:#fef8d3;}.cls-33{fill:#fef8da;}.cls-34{fill:#fef8db;}.cls-35{fill:#fef7d1;}.cls-36{fill:#e2f3cf;}.cls-37{fill:#e7f7da;}.cls-38{fill:#e0f4ce;}.cls-39{fill:#d8f2c2;}.cls-40{fill:#d7f1c0;}.cls-41{fill:#d7f1c1;}.cls-42{fill:#d9f2c3;}.cls-43{fill:#edf8e3;}.cls-44{fill:#e2f5d1;}.cls-45{fill:#d3f0ba;}.cls-46{fill:#e4f6d4;}.cls-47{fill:#dbf2c6;}.cls-48{fill:#d5f0bc;}.cls-49{fill:#daf2c4;}.cls-50{fill:#eef9e5;}.cls-51{fill:#f0f9e7;}.cls-52{fill:#ecf8e1;}.cls-53{fill:#ebf7e3;}.cls-54{fill:#dff4cd;}.cls-55{fill:#fef8d6;}.cls-56{fill:#fef8d9;}.cls-57{fill:#fefae4;}.cls-58{fill:#fcdf78;}</style></defs><title>_text_</title><path class="cls-1" d="M912.21,145c-.21,16.84.28,33.69-.16,50.53-.3,11.85-.39,23.75-2.92,35.41s-6.9,22.36-14.63,31.52C883.82,275.14,870,282.66,854,286.19c-20,4.41-39.56,2.84-58.36-5.67a50.65,50.65,0,0,1-12.91-7.9c-4.46-3.93-6.88-8.64-5.75-14.77,1.19-6.43,5-9.83,11.54-10.28a36,36,0,0,1,15.56,2.74c9.28,3.57,18.8,6.08,28.8,6.11,15.37.05,28.42-5.33,38.27-17.38,6.08-7.43,8.62-16.18,8.19-25.74-.34-7.27-4.9-10.49-12-8.79a28.74,28.74,0,0,0-7.05,3.06,71.72,71.72,0,0,1-26.5,8c-2,.23-2.88,0-2.84-2.45.17-9.21.1-18.42,0-27.64,0-1.55.21-2.11,2-1.93,20.25,2,40.52-13.46,44.24-33.66,2.39-13,1.38-25.76-4.42-37.68-8-16.39-21.24-24.77-39.68-24.35-1.74,0-2.22-.27-2.19-2.06.1-7.88.13-15.77,0-23.65,0-2.21.77-2.3,2.59-2.14,8,.68,15.58,3.09,23,6,10.62,4.07,21.16,4.51,31.53-1a21.69,21.69,0,0,1,7.58-2.31c6.62-.82,11.49,2,14.06,8.16,2,4.87,2.16,10,2.22,15.17q.18,14.81.21,29.62C912.24,125.43,912.21,135.23,912.21,145Z" transform="translate(-4.43 -3.59)"/><path class="cls-2" d="M738.82,133.19c0,17.59,0,35.18,0,52.77a81,81,0,0,1-1.9,19c-1.78,7.22-6.15,11-13,11.25-8.26.32-12.9-2.73-15.4-10.12-1.59-4.71-1.71-9.62-1.95-14.49-.78-15.67-.35-31.36-.67-47-.23-11.51-.12-23.09-2.89-34.38-2.67-10.86-8.35-19.49-19.56-22.91-19.59-6-41.23,1.1-49.26,24.22-3.24,9.31-3.87,19-4,28.69-.26,16.92-.26,33.85-.58,50.77-.09,4.7,0,9.46-1.23,14.1-2.33,8.82-8.2,11.63-15.5,11.41-11.07-.35-14.17-7.41-15-13.86a76.56,76.56,0,0,1-.48-8.43c-.16-11.29-.32-22.57-.37-33.85,0-6,.39-12,.22-17.91-.59-20.16-.46-40.32-.25-60.48a47.09,47.09,0,0,1,2.77-16.59q4.1-10.59,15.19-8c4.67,1.07,8.85,3.23,13,5.49,5.78,3.12,11.84,4.44,18.16,1.89A55,55,0,0,0,652.66,61c20-11.42,50.06-11.51,69.19,8.89,7.09,7.56,11.1,16.61,13.57,26.48a105.45,105.45,0,0,1,3,24.63c.05,4.07,0,8.14,0,12.2Z" transform="translate(-4.43 -3.59)"/><path class="cls-3" d="M68,108.48c0-5.07.12-10.13,0-15.19-.07-2.14.63-2.59,2.64-2.58,9.32.06,18.58-.55,27.64-3,1.36-.36,2.71-.77,4-1.26,16.4-6,20.68-28.48,7.62-40.17-4.93-4.42-11-6.36-17.38-7.43a114.91,114.91,0,0,0-22.08-1.27c-2,.05-2.48-.54-2.46-2.48.09-9.8,0-19.59,0-29.38,0-1.12-.17-2.1,1.56-2.08C82.28,3.88,95.08,3.3,107.7,6c14.37,3.07,27.16,9,36.07,21.18,12.35,16.87,13.39,35.18,5.91,54.29-1.27,3.24-2.9,6.33-4.4,9.48-1.32,2.77-2.54,5.58-3.73,8.4a10.12,10.12,0,0,0,1.35,10.73c2.6,3.56,5.38,7,8.19,10.34,7.91,9.53,13.39,20.16,14.52,32.69,1.93,21.41-7.71,50.28-41.81,58.7-11.61,2.86-23.43,3.63-35.27,4.32-6.13.36-12.28.38-18.41.65-1.75.07-2.22-.51-2.21-2.24.08-9.88.1-19.76,0-29.63,0-2,.62-2.24,2.4-2.22,12,.08,24.07-.09,36-2.23a34.48,34.48,0,0,0,4.57-1.19c12.51-4.08,19.07-13.69,18.22-26.67s-8.81-21.85-21.87-24.06A191.76,191.76,0,0,0,71,126.3c-2.57.06-3.17-.67-3.07-3.14C68.1,118.28,68,113.37,68,108.48Z" transform="translate(-4.43 -3.59)"/><path class="cls-4" d="M293.13,112.06a3.39,3.39,0,0,1,.4,2.39c0,17.71,0,35.41,0,53.12,0,1.58-.16,2.43-1.87,1.29-2.39-.77-4.25-2.45-6.33-3.74-3.06-1.92-6-4-9.11-5.86a7.31,7.31,0,0,1-2.57-3.29,22.37,22.37,0,0,0-7.85-8.48c-1.47-1-2.89-1.22-4.29.13-1.07,1-2.08.61-3.14-.09-2.42-1.6-4.78-3.28-7.27-4.79-.65-.39-1.65-.75-1.54-1.76s1.09-1.16,1.84-1.44A21.93,21.93,0,0,0,263,130.18a18.86,18.86,0,0,0,2.47-7.52c.17-1.38-.06-2.82-1.72-3.13s-2.26,1-2.47,2.43a17.39,17.39,0,0,1-5.77,11c-9.29,8.09-27,4.77-30-9.38-.61-2.91.12-5.59,1.06-8.26.25-.71.65-1.35.92-2a1.86,1.86,0,0,0-.52-2.46,2.06,2.06,0,0,0-2.73.27,7.13,7.13,0,0,0-1.63,2.49c-4,8.41-.41,18.93,8.09,23.89a30.58,30.58,0,0,0,7.36,3c2.7.75,3,1.27,2,3.91-2.37,6.11-7,9.46-13.34,10.68-1.3.25-2.63.38-3.93.64-.88.18-1.6.6-1.54,1.64a2,2,0,0,0,1.52,1.78,3.86,3.86,0,0,0,1.72.14c9.35-1.13,17.18-5.6,20.34-15.74.88-2.84,2.22-3.28,4.82-1.64,4.83,3.05,9.56,6.27,14.43,9.28,9.7,6,9.45,19.7,0,25.85-.42.27-.85.52-1.25.82-1.7,1.27-1.78,2.19-.17,3.53.83.69,1.52,1.29,1.19,2.47-.26,1.37-.46,2.75-.77,4.11-.32,1-.2,2-.77,2.92-.93.36-1.35-.38-1.85-.89a24.17,24.17,0,0,0-15.65-7.25,5.22,5.22,0,0,0-2,.05,2,2,0,0,0-1.52,1.48c-.15.88.44,1.37,1.1,1.77a6.61,6.61,0,0,0,2.87.71c8.86.87,14.12,5.67,15.87,14.49.08.4.12.82.23,1.22.3,1.16,1,2,2.26,1.84a2,2,0,0,0,1.8-2.3,17.24,17.24,0,0,0-2-7.62c-.49-.93-1.28-1.77-1.1-3a14.75,14.75,0,0,0,.6-2.94,28.74,28.74,0,0,0,.77-4.1,5.45,5.45,0,0,1,2.57-4.24c6.57-4.63,10.07-10.79,9-19.07a1.86,1.86,0,0,1,.13-1c.67-.76,1.43-.4,2,0,4.42,2.9,8.92,5.68,13.25,8.71a1.54,1.54,0,0,1,.39.63c2.09,1.08,2.5,2.8,2.48,5.1-.11,14.69-.09,29.38,0,44.06a6.92,6.92,0,0,1-1.62,4.8c-6.27,7.42-14.35,10.07-23.66,8.13-8.79-1.84-14.92-7-17-16.13-.34-1.47-1.15-1.49-2.27-1.66-10.46-1.56-19-6.28-24.59-15.52a24.3,24.3,0,0,1-3.61-11.5c-.06-1.1-.07-1.48-1.63-1.46-6.9.09-12.21-3-15.79-9A17.43,17.43,0,0,1,201,162.42a2,2,0,0,0-.74-2.36,29.53,29.53,0,0,1-4.84-5.33c-2.66-3.84-4.57-7.88-4-12.74a17.66,17.66,0,0,0,0-4c-1-9.24,3.74-15.69,10.48-21,2-1.56,2.67-2.34,1.12-4.93-6.11-10.21-.81-23.22,11-27.79a22.78,22.78,0,0,1,5.77-1.48c1.27-.14,1.69-.49,1.42-1.87a26.17,26.17,0,0,1,3.08-18.71c1.05-.53,1.73.26,2.51.68s1.32,1.13,2.07,1.58c.6.43,1.11,1,1.74,1.35s1.23.82,1.86,1.21a8,8,0,0,0,2.29,1.44,3.9,3.9,0,0,1,.94.87,7.72,7.72,0,0,0,2,1.48,3.87,3.87,0,0,1,.53.37,15.79,15.79,0,0,0,1.86,1.39,2.63,2.63,0,0,1,1,1.79c-.31,2.09.7,3.06,2.71,3.31,2.47.31,4.94.68,6.83,2.57a9,9,0,0,0,2.2,1.51,4.17,4.17,0,0,1,1.32,1,13.79,13.79,0,0,0,2.67,2.08c3.57,1.8,4,5.22,4.38,8.63.2,1.77-1.25,2.56-2.4,3.49-4.3,3.47-7.1,7.79-7.51,13.43a5,5,0,0,0,0,1.49c.21,1,.71,1.71,1.77,1.78a2.14,2.14,0,0,0,2.17-1.36,3.28,3.28,0,0,0,.27-1.2c.55-8.09,7.08-13.87,14.51-15a5,5,0,0,1,2.9.57,9.69,9.69,0,0,1,1.39,1.07,26.07,26.07,0,0,0,2.47,1.67c1.13.95,2.35,1.8,3.52,2.69.54.37,1,.79,1.55,1.2a12,12,0,0,0,2.73,1.57,4.47,4.47,0,0,1,1,.88,16.25,16.25,0,0,0,2.28,1.86c.62.44,1.26.87,1.91,1.27C290.9,110,292.47,110.53,293.13,112.06Z" transform="translate(-4.43 -3.59)"/><path class="cls-3" d="M46.7,3.69c6.22,0,12.45,0,18.67,0,1.55,0,2.14.35,2.12,2.06q-.12,14.82,0,29.63c0,1.69-.38,2.28-2.18,2.27a51.75,51.75,0,0,0-13.77,1.74C45.48,41,42,44.79,40.5,50.9c-1.86,7.77-1.11,15.48-.19,23.24.21,1.81.36,3.63.67,5.43C42.09,86,45.28,89,51.73,89.67a115.45,115.45,0,0,0,13.89,1c1.39,0,1.87.4,1.86,1.83q-.08,15.93,0,31.87c0,1.37-.34,1.9-1.79,1.85-3.07-.09-6.14,0-9.21,0-7.16,0-12.17,3.29-15.11,9.78a39.72,39.72,0,0,0-3,12.76,59.36,59.36,0,0,0,.12,14.89C39.6,171,43.39,176.18,50.33,179a45.64,45.64,0,0,0,15,3.31c1.74.1,2.18.69,2.17,2.37-.08,10,0,19.92,0,29.88,0,1.31,0,2.12-1.79,2.09-11.86-.23-23.73.53-35.59-.43a85.63,85.63,0,0,1-13.51-2c-5.69-1.39-8.95-5-10.45-10.53a56,56,0,0,1-1.51-14.81c-.06-42.08-.22-84.16-.14-126.24,0-12.94-.33-25.89.59-38.82a48,48,0,0,1,1.44-8.32c1.38-5.46,4.82-8.7,10.21-10.08A69.46,69.46,0,0,1,34.25,3.59H46.7Z" transform="translate(-4.43 -3.59)"/><path class="cls-5" d="M496.81,189c0-5.56.05-11.12,0-16.68,0-1.61.24-2.32,2.11-2.32,19.24,0,33.4-16.65,33.15-34-.14-10.32-2.62-19.3-9.84-26.77-6.29-6.5-14.1-9.5-23-9.69-2,0-2.44-.65-2.43-2.54q.14-16.44,0-32.87c0-1.89.52-2.35,2.37-2.33,42.4.38,65.79,32.78,69,61.92,1.74,16,.49,31.79-7.31,46.25-13.24,24.53-34.06,37-61.91,38-1.6.05-2.14-.36-2.11-2C496.87,200.29,496.81,194.64,496.81,189Z" transform="translate(-4.43 -3.59)"/><path class="cls-5" d="M496.31,80.79c0,5.56-.07,11.12,0,16.68,0,1.63-.51,2.06-2.07,2.23-17.9,2-30.13,15.74-30.46,33.78-.19,9.93,2.5,18.62,9.18,26a31,31,0,0,0,20.89,10.35c1.88.18,2.48.61,2.47,2.58q-.17,16.56,0,33.11c0,2.09-.68,2.44-2.54,2.33-24.88-1.39-43.62-12.93-56.5-34.15-14.69-24.22-14.29-63.35,6.79-87.58,13.27-15.27,30-23,50.06-24.25,1.86-.12,2.2.52,2.17,2.2C496.25,69.67,496.31,75.23,496.31,80.79Z" transform="translate(-4.43 -3.59)"/><path class="cls-6" d="M300.5,116.71l-1.4-1.11c-.51-.76-.26-1.61-.27-2.42,0-14.59,0-29.18-.06-43.77,0-2,.46-3.09,2.57-3.06a6.36,6.36,0,0,1,6,1.28c1.29,1.17,2.92,1,4.48,1,2.86-.12,5.31.2,7.59,2.54,2.88,3,7.4,2.43,10.43-.64,1-1,2-2,3.59-1.66,1.72.54,3.53.07,5.26.45a7.53,7.53,0,0,0,2.75.33,14.54,14.54,0,0,1,2.8.19,7.69,7.69,0,0,0,2.74.31,17.4,17.4,0,0,1,3.22.18,7.86,7.86,0,0,0,2.77.32,14.52,14.52,0,0,1,2.87.18c1.73.6,3.56.1,5.31.48a7.69,7.69,0,0,0,2.86.32,11.26,11.26,0,0,1,5.82,1.1c1.54-.1,2.24.56,2.22,2.17a25.93,25.93,0,0,1-.63,6.16c-.31,1.2,0,1.63,1.21,1.77a25.33,25.33,0,0,1,9.17,3c5.43,2.93,8.06,7.46,9.46,13.5A17.27,17.27,0,0,1,388.54,114c-.93,1.35.32,1.56.95,2,6.2,4.4,10.57,10.11,12.14,17.61,2.12,10.13-1.07,18.67-8.43,25.72a3.76,3.76,0,0,0-1.35,4c1.1,5.63-.53,10.66-4.05,15.12-.6.75-1.18,1.13-2.07.57a5.77,5.77,0,0,1-2.26-1.15,17.55,17.55,0,0,1-1.53-1.16,9.25,9.25,0,0,0-2.73-1.6,2.8,2.8,0,0,1-.77-.61,12.63,12.63,0,0,0-1.93-1.72,9.63,9.63,0,0,0-2.77-1.66,3.4,3.4,0,0,1-.95-.9,8.43,8.43,0,0,0-2.27-1.8c-.56-.36-1.06-.8-1.59-1.2a14,14,0,0,1-2.69-2.22c-.49-1.12.36-1.47,1.1-1.83,2.62-1.29,4.53-3.06,4.24-6.3a6,6,0,0,0-4.27-5.27c-3-1.06-6-.73-8.17,1.84s-4.35,2.67-7.07,1.55a9,9,0,0,1-1.41-1.07,8.63,8.63,0,0,0-2.81-1.71,2.7,2.7,0,0,1-.78-.61,13.89,13.89,0,0,0-2.43-2.09c-.54-.35-1-.78-1.53-1.18-.79-.59-1.64-1.08-2.47-1.63a4.11,4.11,0,0,1-1.53-1.89,2.19,2.19,0,0,1,.7-1.78c2-2.22,2.06-4.58.55-7a7.36,7.36,0,0,0-7.09-3.09,8.78,8.78,0,0,0-3.63,1.49,2.09,2.09,0,0,1-2.94-.11c-2.05-2.14-4.62-3.72-6.44-6.1-.38-1.12.4-1.68,1.14-2.18,1.28-.86,2.43-1.91,3.77-2.69a5.09,5.09,0,0,1,1.53-1,26.81,26.81,0,0,0,12.5,0c3-.79,5-3,7.1-4.87,4-3.52,8-7,11.79-10.66,1.62-1.58,3.28-2.66,5.75-2.08a5.83,5.83,0,0,0,4.9-1.32c2.24-1.75,4-3.94,1.35-7.38-3-3.89-5.24-4.86-8.8-3.18a6.13,6.13,0,0,0-3.7,6.66,4.47,4.47,0,0,1-1.83,4.27c-4.08,3.51-8.13,7.07-12,10.8-3.34,3.21-6.93,5.36-11.73,4.73-2.57-.33-4.56.39-5.57,3-.49.36-.92.81-1.43,1.14-1.36.89-2.61,1.94-3.95,2.85a2.38,2.38,0,0,1-2.25.61c-4.84-3.07-7.1-7.39-7.55-13.19-.61-7.65,2.6-13.07,8.37-17.5,2.23-1.71,4.17-3.78,6.3-5.63,1.48-1.29,2.59-1.54,4.35-.44a7.38,7.38,0,0,0,9.34-1.24,5.52,5.52,0,0,0-.15-8.2c-2.89-2.82-7.69-3.17-10,0-4.55,6.17-10.71,10.58-16.08,15.84-4.26,4.18-6.51,9-6.29,15.08.11,3.3.66,6.55.75,9.83-.34.56-.79.41-1.26.22-.78-.42-1.49-1-2.25-1.44s-1.31-1.08-2.05-1.51a4,4,0,0,1-.54-.37A4.48,4.48,0,0,1,300.5,116.71Z" transform="translate(-4.43 -3.59)"/><path class="cls-1" d="M830.52,199.5c0,4.64-.09,9.29.05,13.93.06,1.88-.5,2.36-2.35,2.35-19.44-.09-35.38-7.58-48-22.38-15.75-18.56-21.67-40.13-19.56-64.09,1.82-20.71,10-38.58,24.87-53.15,11.88-11.65,26.56-16.46,43-16.38,1.53,0,2,.46,2,2-.08,8.21,0,16.42,0,24.64,0,1,0,1.64-1.32,1.88-18.07,3.3-28.36,15.09-33.23,31.86-4.32,14.9-3.09,29.69,4.72,43.34A38.66,38.66,0,0,0,828,182.88c2.06.4,2.64,1.13,2.56,3.18C830.4,190.53,830.52,195,830.52,199.5Z" transform="translate(-4.43 -3.59)"/><path class="cls-7" d="M1009.83,76.34c0,4.15,0,8.3,0,12.45,0,1.2-.19,1.82-1.6,1.79-20-.41-36.75,16-40.77,35.2-2.94,14-2.31,27.79,5.31,40.23,8,13,19.5,20.86,35.25,21.33,1.41,0,1.83.45,1.82,1.85-.05,8.3-.08,16.6,0,24.9,0,1.77-.48,2.22-2.22,2.17-26.11-.72-46.45-11.87-60.51-33.89C930.36,156,930.81,119,948.23,93.75c14.19-20.57,34.17-30.78,59-31.87,2-.09,2.75.36,2.65,2.51C1009.71,68.37,1009.83,72.36,1009.83,76.34Z" transform="translate(-4.43 -3.59)"/><path class="cls-7" d="M1010.33,201.54c0-4.07.06-8.14,0-12.2,0-1.42.27-2,1.87-2.11,21.51-1.16,37.86-17.91,40.84-39,1.81-12.79.8-25.3-6-36.61-7.76-12.87-19.81-19.17-34.43-20.89-1.81-.22-2.33-.67-2.3-2.5.11-8,.13-15.94,0-23.9,0-2.2.71-2.51,2.67-2.48,33.58.6,62.17,24.07,69.62,57.39,5.07,22.7,2.46,44.39-10.52,64-13.92,21-34,31.75-59.14,33-2,.11-2.73-.35-2.63-2.5C1010.46,209.68,1010.33,205.61,1010.33,201.54Z" transform="translate(-4.43 -3.59)"/><path class="cls-6" d="M373.28,169.9l.49,1c1.11.2,1.76,1.15,2.68,1.66s1.49,1.2,2.23,1.81l.55.47a19.33,19.33,0,0,1,2.69,1.7c.57.3,1,.83,1.51,1.17a5.82,5.82,0,0,1,2.18,1.82c.82,1.11-.29,1.46-.83,1.9A22.13,22.13,0,0,1,374,186.3c-1.56.25-2.11.81-2.4,2.44-1.66,9.45-7.11,16.21-15.34,20.91a2.06,2.06,0,0,1-2.47-.22c-1.93-1.28-3.9-2.48-5.86-3.71-3.34-1.49-6.55-3.18-9.05-5.95-.06-.47.24-.74.53-1.05,3.06-3.22,3.44-6.14,1.2-9.06-2.36-3.08-6.73-4.3-10-2.12-2.31,1.54-3.47.91-5.12-.7-2.72-2.66-5.64-5.13-8.48-7.68a14.36,14.36,0,0,1-5.22-11.85c.13-2.9,0-5.81,0-8.71,0-2-.5-3.56-2.79-3.61s-2.82,1.48-2.76,3.5c.09,2.65.15,5.31,0,8-.32,5.62,1.56,10.41,5.7,15.12-2.57-.92-4-2.53-5.77-3.27-6.13-2.51-7.66-6.9-7.43-13.41.55-15.33.17-30.69.24-46,0-.53-1.08-2.24,1-1.76.87.06,1.29,1.11,2.23,1l.12,0c.62.7,1.09,1.58,2.09,1.86a10.86,10.86,0,0,0,1.78,1.38,11.44,11.44,0,0,0,2.06,1.13c4.44,4.78,9.29,9.13,14.12,13.51,2.25,2,4.52,4,6.07,6.76,1.45,2.63,4.34,3.08,7.23,2.67a6.57,6.57,0,0,1,2.92-.27,7,7,0,0,1,2.18,1.63,23.89,23.89,0,0,1,2.19,1.4c.58.32,1,.86,1.56,1.2a21.44,21.44,0,0,1,2.65,2.1l.59.53c1.26.29,2,1.33,3,2a.89.89,0,0,1-.35,1.37,8.46,8.46,0,0,1-3.43.37H331.75a10.78,10.78,0,0,0-2.72.19c-.76.21-1.42.6-1.42,1.49s.59,1.14,1.22,1.41a7.77,7.77,0,0,0,3.18.4c7.28,0,14.56,0,21.85,0,2.09,0,3.88.35,5.29,2.09a7.7,7.7,0,0,0,4.1,2.2c.94.27,2,.36,2.65,1.22a22.23,22.23,0,0,0,2.92,2.28,19.44,19.44,0,0,1,1.63,1.24C371.43,168.72,372.16,169.63,373.28,169.9Z" transform="translate(-4.43 -3.59)"/><path class="cls-6" d="M301,65.9c-1.63.14-2.05-.63-2-2.2.07-7.63,0-15.26,0-22.89a4.66,4.66,0,0,1,1-3c5.52-7.31,13.08-10.75,21.94-9.54,9.68,1.32,17,6.4,19.44,16.65.35,1.5,1.17,1.5,2.25,1.65,8.43,1.17,15.68,4.61,21.4,11a30.1,30.1,0,0,1,6.77,13.66c-.8,1.5-2.26.65-3.4,1-.7.18-1.44-.27-2.19-.21a10.46,10.46,0,0,0-2.95-.24c-1.95,0-3.84-.63-5.8-.5-1,0-1.88-.35-2.85-.27a9.27,9.27,0,0,0-2.78-.23c-.93,0-1.83-.35-2.77-.27a8.56,8.56,0,0,0-2.76-.22c-1.09.09-2.12-.35-3.2-.28a9.91,9.91,0,0,0-2.82-.23,38,38,0,0,0-5.73-.5c-2.31.09-3.35-.86-3.4-3.33-.05-2.62-2-4.2-4.24-5-2.61-.93-5.51-.93-7.39,1.31-2.1,2.51-4.57,2.95-7.49,2.74a6.56,6.56,0,0,0-4.92,1.24c-1,.83-2.24.14-3.37.27C302.85,66.15,301.81,66.53,301,65.9Z" transform="translate(-4.43 -3.59)"/><path class="cls-6" d="M347.39,206.24l6.47,4.46a28.87,28.87,0,0,1-10.15,2.94c-1.43.17-2.06.53-2.42,2.09a21.42,21.42,0,0,1-17.8,16c-9.63,1.53-19.29-2.38-23.77-9.6a4.21,4.21,0,0,1-.72-2.32q0-22.26,0-44.5c.25,0,.46-.16.55-.1,8.89,5.89,18.36,11,26,18.63a6.89,6.89,0,0,1,1.27,1.5c2.5,4.62,4.54,5.66,9.83,5a9.83,9.83,0,0,1,1.71.07A34.72,34.72,0,0,1,347.39,206.24Z" transform="translate(-4.43 -3.59)"/><path class="cls-4" d="M227.77,59.42c-1.47-.06-1.14-.62-.45-1.42a32.82,32.82,0,0,1,13.54-9.43,34.58,34.58,0,0,1,8.2-2,2.2,2.2,0,0,0,2.17-1.86c2.84-9.63,9.26-14.6,19.29-16,9.06-1.31,15.72,2,21.47,8.36a6.3,6.3,0,0,1,1.58,4.55c-.09,7.14,0,14.27-.05,21.41,0,1,.43,2.32-1.35,2.28a20.34,20.34,0,0,1-5.51,0c-2.72-.55-5.53-.25-8.24-.81q-5.71-.32-11.38-1.06a11.48,11.48,0,0,1-5.88-3.05,25.62,25.62,0,0,1-2.93-3c-1-1.12-2.16-1.78-3.47-.81s-.4,2.06.15,3.08c.38.69,1.27,1.4.67,2.2s-1.8.61-2.78.47a6.91,6.91,0,0,0-2.39-.28c-3.77.3-7.41-.78-11.13-1-2.91,0-5.78-.66-8.69-.66C229.67,60,228.58,60.14,227.77,59.42Z" transform="translate(-4.43 -3.59)"/><path class="cls-4" d="M235.39,69.91l-.64-1.22c-1.16-.09-1.7-1.13-2.58-1.65-.72-.2-1.13-.94-1.88-1.1-.62-.4-.95-1.16-1.7-1.42s-1.24-1.32-2.16-1.56c-.87-.66-1.82-1.28-1-2.58l0,0c.91-.64,2-.08,3-.52,2.93.2,5.85.51,8.78.73,3.74.14,7.42,1,11.17,1a10.37,10.37,0,0,0,2.83.25,15.64,15.64,0,0,1,10.27,3.4c2.68,2.2,6.14,2.73,9.49,3.24,3.7.57,4.72-.58,3.77-4.12a4,4,0,0,1,2.62-.17c2.79.13,5.55.68,8.35.65,2,.48,4,.11,5.95.9,2-.13,1.94,1.15,1.94,2.59q0,21.36,0,42.73c-2,.49-2.66-1.35-3.94-2.11-.7-.14-1.1-.75-1.67-1.1-1-.47-1.64-1.46-2.79-1.63l-.55-1.09c-1.07-.24-1.77-1.11-2.68-1.63-.65-.38-1.12-1-1.87-1.22-1.07-1.1-2.43-1.82-3.54-2.85-.76-.28-1.27-1-2-1.23-.81-.7-1.38-1.43-.35-2.4.75-.7,1.53-1.42.91-2.56A2.59,2.59,0,0,0,272.28,92c-1.33.12-2.63.4-3.94.58a2.58,2.58,0,0,1-3.16-2.11c-2.23-9-8.3-13.82-16.9-16.09a22.67,22.67,0,0,0-5.44-.43,3.55,3.55,0,0,1-3-1.3,10.27,10.27,0,0,1-2.09-1.36l0,0C237,70.78,236.41,70,235.39,69.91Z" transform="translate(-4.43 -3.59)"/><path class="cls-8" d="M301,65.9a4.17,4.17,0,0,1,2.65.32c-.38.6-1.11.12-1.56.5-2.49-.44-3.1.57-3.08,3.06.13,15.27.07,30.55.08,45.82-.87-.71-.52-1.69-.52-2.55,0-14.64,0-29.27-.07-43.91C298.49,67.11,299.05,66.12,301,65.9Z" transform="translate(-4.43 -3.59)"/><path class="cls-9" d="M276.64,159c5.13,3.13,10.18,6.36,15.05,9.89l-.58.53c-4.33-2.77-8.64-5.55-13-8.3-.74-.47-1.36-1.28-2.42-1.06C275.4,159.14,276.05,159.08,276.64,159Z" transform="translate(-4.43 -3.59)"/><path class="cls-10" d="M347.39,206.24a84,84,0,0,1-9-5.92l.56-.55a82.05,82.05,0,0,1,9.05,5.95Z" transform="translate(-4.43 -3.59)"/><path class="cls-11" d="M366,71.72c1.9-.43,3.93.92,5.76-.44.66.68.22.92-.43,1s-1.09-.09-1.51.38l-6-.48C364.32,71,365.25,71.71,366,71.72Z" transform="translate(-4.43 -3.59)"/><path class="cls-12" d="M291.61,65.73l-6-.49c0-.94.56-.65,1.06-.48,1.82.1,3.68-.18,5.46.51C292,65.42,291.79,65.57,291.61,65.73Z" transform="translate(-4.43 -3.59)"/><path class="cls-13" d="M289.59,108.71c1.42.61,2.3,2.14,4,2.35l-.42,1-3.59-2.69A.39.39,0,0,1,289.59,108.71Z" transform="translate(-4.43 -3.59)"/><path class="cls-14" d="M228.37,60.25l-3,.15c.49-1.1,1.79-.17,2.39-1a4.49,4.49,0,0,1,2.73.31C229.92,60.43,229,59.79,228.37,60.25Z" transform="translate(-4.43 -3.59)"/><path class="cls-15" d="M225.42,60.38c-.48,1.37.63,1.84,1.41,2.5a.39.39,0,0,1,0,.64l-2.47-1.28C224.82,61.69,224.61,60.73,225.42,60.38Z" transform="translate(-4.43 -3.59)"/><path class="cls-16" d="M385.61,179.52a5.77,5.77,0,0,1-2.38-1.64.85.85,0,0,1,.49-.46,4.42,4.42,0,0,1,2,1.59Z" transform="translate(-4.43 -3.59)"/><path class="cls-17" d="M302.32,118.11c-1.22.71-1.52-.62-2.23-1l.41-.38A3.77,3.77,0,0,1,302.32,118.11Z" transform="translate(-4.43 -3.59)"/><path class="cls-18" d="M252.35,80.68a12.14,12.14,0,0,1,4.29,3.22c.53.57.28.81-.41.8-.83-.37-1.35-1.3-2.37-1.33l-1-1.09c-.52-.44-1.39-.62-1.18-1.6A.64.64,0,0,1,252.35,80.68Z" transform="translate(-4.43 -3.59)"/><path class="cls-19" d="M263.66,183.79l.46.53a15,15,0,0,1-.81,4.19c-.34-.09-.37-.42-.53-.66C263.08,186.5,263,185.06,263.66,183.79Z" transform="translate(-4.43 -3.59)"/><path class="cls-13" d="M276.65,99.25l3.55,2.69a.39.39,0,0,1-.05.65l-3.58-2.69A.38.38,0,0,1,276.65,99.25Z" transform="translate(-4.43 -3.59)"/><path class="cls-20" d="M262.78,187.85l.53.66c-.12,1,.08,2-.56,2.89-.21-.22-.42-.43-.64-.64C262.34,189.79,262.56,188.82,262.78,187.85Z" transform="translate(-4.43 -3.59)"/><path class="cls-21" d="M285.15,106.21c1.41-.39,2.06.76,3,1.44a.69.69,0,0,1-.47.42Z" transform="translate(-4.43 -3.59)"/><path class="cls-22" d="M282.1,103.24l2.5,1.88c-1.4.36-2.07-.78-3-1.46A.65.65,0,0,1,282.1,103.24Z" transform="translate(-4.43 -3.59)"/><path class="cls-23" d="M242.78,73.27l-1.89,1L239.73,73a.35.35,0,0,1,.05-.61A3.81,3.81,0,0,0,242.78,73.27Z" transform="translate(-4.43 -3.59)"/><path class="cls-24" d="M232.31,66.89l2.44,1.8c-1.22.44-1.78-.51-2.49-1.16A.38.38,0,0,1,232.31,66.89Z" transform="translate(-4.43 -3.59)"/><path class="cls-25" d="M253.86,83.37c1.22-.32,1.83.45,2.37,1.33a1.75,1.75,0,0,1,0,.4Z" transform="translate(-4.43 -3.59)"/><path class="cls-26" d="M272.64,96.19l1.59,0c-1.11,1.09.45,1.24.65,1.87a.43.43,0,0,1-.71.08l-1-.9C272.94,96.94,272.36,96.76,272.64,96.19Z" transform="translate(-4.43 -3.59)"/><path class="cls-27" d="M226.79,63.52l0-.64,2,1.6c.13.1.17.19.12.28s-.1.13-.14.13A3.6,3.6,0,0,1,226.79,63.52Z" transform="translate(-4.43 -3.59)"/><path class="cls-12" d="M272.64,96.19l.51,1.09a4.92,4.92,0,0,0-3-.63C270.89,95.87,271.82,96.3,272.64,96.19Z" transform="translate(-4.43 -3.59)"/><path class="cls-28" d="M274.17,98.18l.71-.08,1.77,1.15-.08.65Z" transform="translate(-4.43 -3.59)"/><path class="cls-29" d="M235.39,69.91c1.28-.38,1.91.39,2.42,1.38C236.72,71.32,236.16,70.42,235.39,69.91Z" transform="translate(-4.43 -3.59)"/><path class="cls-30" d="M232.31,66.89c0,.21,0,.42-.05.63l-1.92-1.29a.4.4,0,0,1,0-.65Z" transform="translate(-4.43 -3.59)"/><path class="cls-31" d="M230.37,65.58l0,.65a2.91,2.91,0,0,1-1.53-1.34c0-.14,0-.28,0-.41A2.54,2.54,0,0,1,230.37,65.58Z" transform="translate(-4.43 -3.59)"/><path class="cls-32" d="M251.6,80.79c.42.49.83,1,1.25,1.49a2.52,2.52,0,0,1-2.12-1.43v-.1A.52.52,0,0,1,251.6,80.79Z" transform="translate(-4.43 -3.59)"/><path class="cls-33" d="M282.1,103.24l-.46.42-1.49-1.07c0-.22,0-.43.05-.65Z" transform="translate(-4.43 -3.59)"/><path class="cls-34" d="M287.63,108.07l.47-.42,1.49,1.06c0,.22,0,.44,0,.66Z" transform="translate(-4.43 -3.59)"/><path class="cls-35" d="M239.78,72.36l-.05.61c-.77-.42-1.65-.73-1.94-1.7C238.71,71.17,239.14,72,239.78,72.36Z" transform="translate(-4.43 -3.59)"/><path class="cls-36" d="M320.6,128l-1.6-1.45c2.43-.38,3.7-2.69,5.87-3.52.51-.25.58.06.57.46-1.29,1-2.58,1.89-3.86,2.86C321.05,126.77,320.22,127,320.6,128Z" transform="translate(-4.43 -3.59)"/><path class="cls-37" d="M333.31,69.36l1.09-.49,6,.49c-.29,1.18-1.09.52-1.71.48C336.87,69.82,335.05,70,333.31,69.36Z" transform="translate(-4.43 -3.59)"/><path class="cls-38" d="M357.32,70.86l6,.49c-.5,1.26-1.44.5-2.21.49a16.65,16.65,0,0,1-5.4-.46C356.08,70.75,356.85,71.27,357.32,70.86Z" transform="translate(-4.43 -3.59)"/><path class="cls-39" d="M347.29,151.44a7,7,0,0,1-2.91-1.95.79.79,0,0,1,.49-.44C345.76,149.76,347.13,150,347.29,151.44Z" transform="translate(-4.43 -3.59)"/><path class="cls-40" d="M366.27,165.45l.47-.42,2.57,1.88a.87.87,0,0,1-.5.46A7.83,7.83,0,0,1,366.27,165.45Z" transform="translate(-4.43 -3.59)"/><path class="cls-41" d="M373.28,169.9c-1.52.55-2.07-.85-3-1.48a.87.87,0,0,1,.5-.46A6.65,6.65,0,0,1,373.28,169.9Z" transform="translate(-4.43 -3.59)"/><path class="cls-42" d="M381.77,176.83a6.3,6.3,0,0,1-2.54-2c1.49-.43,2.11.86,3,1.54A.87.87,0,0,1,381.77,176.83Z" transform="translate(-4.43 -3.59)"/><path class="cls-37" d="M338.68,69.84c.59-.07,1.25.08,1.71-.48a5.63,5.63,0,0,1,2.72.33c-.42.63-1.2.12-1.69.52A5.14,5.14,0,0,1,338.68,69.84Z" transform="translate(-4.43 -3.59)"/><path class="cls-43" d="M349,70.22l2.79.15c-.26,1.16-1.07.49-1.68.5l-3.23-.17C347.39,69.49,348.29,70.18,349,70.22Z" transform="translate(-4.43 -3.59)"/><path class="cls-42" d="M350.39,153.9a7.64,7.64,0,0,1-2.51-1.93c1.49-.49,2.07.85,3,1.49A.77.77,0,0,1,350.39,153.9Z" transform="translate(-4.43 -3.59)"/><path class="cls-8" d="M361.08,71.84c.74-.14,1.59.18,2.21-.49a5.11,5.11,0,0,1,2.73.37c-.73.16-1.57-.18-2.18.49A5,5,0,0,1,361.08,71.84Z" transform="translate(-4.43 -3.59)"/><path class="cls-8" d="M376.28,172.84a8.37,8.37,0,0,1-2.51-2c1.51-.53,2.09.88,3.05,1.48C376.77,172.68,376.49,172.72,376.28,172.84Z" transform="translate(-4.43 -3.59)"/><path class="cls-37" d="M341.42,70.21c.45-.54,1.11-.38,1.68-.52l3.25.19c-.49,1.21-1.4.5-2.16.47Z" transform="translate(-4.43 -3.59)"/><path class="cls-44" d="M344.19,70.35c.72-.16,1.55.17,2.16-.47a5,5,0,0,1,2.69.34c-.7.19-1.52-.16-2.12.48A5,5,0,0,1,344.19,70.35Z" transform="translate(-4.43 -3.59)"/><path class="cls-44" d="M350.15,70.87c.57-.14,1.23,0,1.68-.5a5,5,0,0,1,2.69.32c-.41.63-1.17.11-1.64.53A4.92,4.92,0,0,1,350.15,70.87Z" transform="translate(-4.43 -3.59)"/><path class="cls-45" d="M342.91,148.45a3.66,3.66,0,0,1-2-1.69q-.21-.18-.12-.33c.06-.1.11-.15.17-.15l2.4,1.71A.85.85,0,0,1,342.91,148.45Z" transform="translate(-4.43 -3.59)"/><path class="cls-43" d="M352.88,71.22c.42-.56,1.09-.37,1.64-.53l2.8.17c-.43.55-1.09.36-1.64.52Z" transform="translate(-4.43 -3.59)"/><path class="cls-46" d="M376.28,172.84l.54-.47c.74.55,1.85.75,1.86,2A5.63,5.63,0,0,1,376.28,172.84Z" transform="translate(-4.43 -3.59)"/><path class="cls-47" d="M304.48,120.32c-.82-.62-2.15-.78-2-2.25l2.08,1.67a.36.36,0,0,1,.11.4C304.58,120.26,304.53,120.32,304.48,120.32Z" transform="translate(-4.43 -3.59)"/><path class="cls-48" d="M304.48,120.32l0-.58a4.26,4.26,0,0,1,2,1.35.78.78,0,0,1-.48.44Z" transform="translate(-4.43 -3.59)"/><path class="cls-37" d="M306.06,121.53l.48-.44.92.47a1.06,1.06,0,0,1,.47,1.21Z" transform="translate(-4.43 -3.59)"/><path class="cls-49" d="M341,146.28a1,1,0,0,0-.05.48c-.95,0-1.43-.71-2-1.27l.45-.45Z" transform="translate(-4.43 -3.59)"/><path class="cls-50" d="M370.77,168l-.5.46-1.46-1,.5-.46Z" transform="translate(-4.43 -3.59)"/><path class="cls-51" d="M381.77,176.83l.5-.46,1.45,1-.49.46Z" transform="translate(-4.43 -3.59)"/><path class="cls-52" d="M342.91,148.45l.49-.46,1.47,1.06-.49.44Z" transform="translate(-4.43 -3.59)"/><path class="cls-53" d="M350.39,153.9l.49-.44,1,.85a.94.94,0,0,1-1.16.59A1,1,0,0,0,350.39,153.9Z" transform="translate(-4.43 -3.59)"/><path class="cls-54" d="M325.44,123.5l-.57-.46,1.15-.82.5.41Z" transform="translate(-4.43 -3.59)"/><path class="cls-55" d="M248.57,61.89a73,73,0,0,1-11.44-1c.59-.68,1.49-.06,2.13-.5l11.45,1C250.24,62.64,249.32,61.91,248.57,61.89Z" transform="translate(-4.43 -3.59)"/><path class="cls-56" d="M239.26,60.41c-.59.65-1.42.31-2.13.5l-8.76-.66c.59-.67,1.43-.31,2.13-.52Z" transform="translate(-4.43 -3.59)"/><path class="cls-57" d="M277,64.37l1.08-.47c2.87.25,5.77.17,8.6.86l-1.06.48A50.89,50.89,0,0,1,277,64.37Z" transform="translate(-4.43 -3.59)"/><path class="cls-13" d="M248.57,61.89c.71-.17,1.54.17,2.14-.49a2.89,2.89,0,0,1,2.13.35c-.51.16-1.14,0-1.54.49A4.16,4.16,0,0,1,248.57,61.89Z" transform="translate(-4.43 -3.59)"/><path class="cls-58" d="M251.6,80.79l-.87,0c-.07-.28-.13-.56-.19-.84.78-.16,1.29.32,1.81.77Z" transform="translate(-4.43 -3.59)"/></svg>